<svg xmlns="http://www.w3.org/2000/svg" width="30" height="32" viewBox="0 0 30 32">
  <metadata><?xpacket begin="﻿" id="W5M0MpCehiHzreSzNTczkc9d"?>
<x:xmpmeta xmlns:x="adobe:ns:meta/" x:xmptk="Adobe XMP Core 5.6-c142 79.160924, 2017/07/13-01:06:39        ">
   <rdf:RDF xmlns:rdf="http://www.w3.org/1999/02/22-rdf-syntax-ns#">
      <rdf:Description rdf:about=""/>
   </rdf:RDF>
</x:xmpmeta>
                                                                                                    
                                                                                                    
                                                                                                    
                                                                                                    
                                                                                                    
                                                                                                    
                                                                                                    
                                                                                                    
                                                                                                    
                                                                                                    
                                                                                                    
                                                                                                    
                                                                                                    
                                                                                                    
                                                                                                    
                                                                                                    
                                                                                                    
                                                                                                    
                                                                                                    
                                                                                                    
                           
<?xpacket end="w"?></metadata>
<defs>
    <style>
      .cls-1 {
        fill: #292929;
        fill-rule: evenodd;
      }
    </style>
  </defs>
  <path id="Shpping" class="cls-1" d="M350.281,128.684a3.658,3.658,0,1,0,3.632,3.658A3.649,3.649,0,0,0,350.281,128.684Zm0,5.076a1.418,1.418,0,1,1,1.408-1.418A1.415,1.415,0,0,1,350.281,133.76Zm13.2-5.076a3.658,3.658,0,1,0,3.633,3.658A3.649,3.649,0,0,0,363.477,128.684Zm0,5.076a1.418,1.418,0,1,1,1.409-1.418A1.415,1.415,0,0,1,363.477,133.76Zm-14.79-6.2H366a1.12,1.12,0,0,0,0-2.239H349.632l-3.184-19.664a1.115,1.115,0,0,0-.907-0.923l-4.263-.747a1.12,1.12,0,0,0-.381,2.207l3.483,0.609,3.209,19.817A1.114,1.114,0,0,0,348.687,127.564Zm21.1-16.336a1.109,1.109,0,0,0-.9-0.46H346.277v2.24h21.086l-2.287,7.166H347.871v2.24h18.015a1.114,1.114,0,0,0,1.059-.778l3-9.406A1.129,1.129,0,0,0,369.787,111.228Z" transform="translate(-340 -104)"/>
</svg>
